<svg width="177.00000000000006" height="52" xmlns="http://www.w3.org/2000/svg">
 <g>
  <title>background</title>
  <rect x="-1" y="-1" width="179" height="54" id="canvas_background" fill="none"/>
 </g>

 <g>
  <title>Layer 1</title>
  <path d="m7.79073,23.3826l2.65397,-1.3088l4.195,-6.2819l1.2842,-0.5234l1.3698,6.3691l-1.7979,0.2617l-1.3698,-2.6174l-1.0273,4.1007l4.5374,0l4.7087,1.2214l1.8835,-1.2214l3.1677,3.3154l1.3698,-6.1074l2.2259,2.2685l1.3698,-1.9195l2.2259,-0.6107l3.2533,-3.0537l0.5136,-1.4833l2.654,0.4363l1.113,1.4832l-1.9691,4.1879l4.8799,-2.5302l0,-1.2215l1.8835,-0.4362l2.0547,2.094l2.0547,-2.5302l0,-1.745l3.3389,-2.3557l1.3698,-2.0067l2.1403,0l3.7669,-7.76512l3.2533,-3.40268l1.1985,1.91946l-1.8834,2.44296l0.6849,1.57047l1.7978,0.34899l1.4554,6.45642l0,5.4093l2.5684,3.5772l1.2842,4.9732l-4.4518,-2.8792l-1.9691,-8.2886l-1.1986,0.2617l-0.1712,5.5839l-3.2533,5.3222l-0.9417,8.1141l2.2259,0.5235l0.9417,-1.1343l2.1403,2.443l1.6267,7.3289l-0.1713,4.7114l-2.0546,0l-0.7706,-6.6309l-1.4554,2.0067l-3.1676,-0.698l-2.5684,-2.1812l-2.9108,1.047l0.1712,4.7114l-2.3115,0.6107l-3.4245,2.6175l-4.1094,-0.5235l-1.6266,-0.9597l-2.5684,0.4362l0.8561,1.047l-2.0547,1.2215l-1.6266,-0.7853l-3.0821,1.396l-4.7087,-2.3557l-1.7978,-4.1879l-1.541,0.1745l-1.7979,-1.4832l-0.0856,-1.1343l-5.736,-0.6107l-0.9418,3.1409l-3.5957,-1.6577l-1.7979,-3.0537l-3.85251,0l-0.42806,4.8859l-2.22593,0.698l-1.11296,4.4497l-0.85612,-0.7853l-3.59572,-9.3355l4.28062,-2.094l-0.6849,-4.1007l-0.6849,-4.1879l1.88347,-2.7047l-0.59928,-1.6577l2.56837,-2.7919l1.02735,0.1745zm56.93227,10.2953l3.9381,5.9328l1.2842,-0.5235l-1.6266,-2.4429l-3.5957,-3.8389l0,0.8725zm-40.2379,-12.0403l0,-1.745l2.9965,-2.1812l2.5683,-1.3087l-2.9964,0l-2.654,1.5705l-1.6266,1.4832l0,2.1812l1.7122,0z" fill="white" id="svg_1"/>
  <text font-weight="bold" fill="#ffffff" stroke="#000" stroke-width="0" x="91.449664" y="39.232111" id="svg_9" font-size="24" font-family="Helvetica, Arial, sans-serif" text-anchor="start" xml:space="preserve">Russia</text>
 </g>
</svg>